<svg xmlns="http://www.w3.org/2000/svg" fill="none" viewBox="0 0 96 96" id="Neon-Icon--Streamline-Svg-Logos" height="24" width="24">
  <desc>
    Neon Icon Streamline Icon: https://streamlinehq.com
  </desc>
  <path fill="#00e0d9" d="M1 17.2072C1 8.2562 8.2562 1 17.2072 1h61.5856C87.7438 1 95 8.2562 95 17.2072v52.3789c0 9.259-11.7187 13.2775-17.4004 5.969L59.8309 52.6974v27.7169C59.8309 88.4698 53.3007 95 45.2453 95H17.2072C8.2562 95 1 87.7438 1 78.7928V17.2072Zm16.2072-3.2404c-1.7913 0-3.2404 1.4491-3.2404 3.2378v61.5882c0 1.7913 1.4491 3.243 3.2378 3.243h28.5263c.8957 0 1.1333-.7259 1.1333-1.6215V43.2478c0-9.2616 11.7186-13.2801 17.403-5.969l17.7686 22.855V17.2072c0-1.7913.1671-3.2404-1.6215-3.2404H17.2072Z"></path>
  <path fill="url(#a)" d="M1 17.2072C1 8.2562 8.2562 1 17.2072 1h61.5856C87.7438 1 95 8.2562 95 17.2072v52.3789c0 9.259-11.7187 13.2775-17.4004 5.969L59.8309 52.6974v27.7169C59.8309 88.4698 53.3007 95 45.2453 95H17.2072C8.2562 95 1 87.7438 1 78.7928V17.2072Zm16.2072-3.2404c-1.7913 0-3.2404 1.4491-3.2404 3.2378v61.5882c0 1.7913 1.4491 3.243 3.2378 3.243h28.5263c.8957 0 1.1333-.7259 1.1333-1.6215V43.2478c0-9.2616 11.7186-13.2801 17.403-5.969l17.7686 22.855V17.2072c0-1.7913.1671-3.2404-1.6215-3.2404H17.2072Z"></path>
  <path fill="url(#b)" fill-opacity=".4" d="M1 17.2072C1 8.2562 8.2562 1 17.2072 1h61.5856C87.7438 1 95 8.2562 95 17.2072v52.3789c0 9.259-11.7187 13.2775-17.4004 5.969L59.8309 52.6974v27.7169C59.8309 88.4698 53.3007 95 45.2453 95H17.2072C8.2562 95 1 87.7438 1 78.7928V17.2072Zm16.2072-3.2404c-1.7913 0-3.2404 1.4491-3.2404 3.2378v61.5882c0 1.7913 1.4491 3.243 3.2378 3.243h28.5263c.8957 0 1.1333-.7259 1.1333-1.6215V43.2478c0-9.2616 11.7186-13.2801 17.403-5.969l17.7686 22.855V17.2072c0-1.7913.1671-3.2404-1.6215-3.2404H17.2072Z"></path>
  <path fill="#63f655" d="M78.7927 1c8.9509 0 16.2071 7.2562 16.2071 16.2072v52.3789c0 9.259-11.7186 13.2775-17.4004 5.969L59.8308 52.6974v27.7169C59.8308 88.4698 53.3006 95 45.2451 95c.4294 0 .8411-.1706 1.1447-.4742.3036-.3036.4742-.7153.4742-1.1447V43.2478c0-9.2616 11.7187-13.2801 17.4031-5.969l17.7686 22.855V4.24039C82.0357 2.45178 80.5839 1 78.7927 1Z"></path>
  <defs>
    <linearGradient id="a" x1="9401" x2="1135.53" y1="9401" y2="1" gradientUnits="userSpaceOnUse">
      <stop stop-color="#62f755"></stop>
      <stop offset="1" stop-color="#8ff986" stop-opacity="0"></stop>
    </linearGradient>
    <linearGradient id="b" x1="9401" x2="3817.66" y1="9401" y2="7229.34" gradientUnits="userSpaceOnUse">
      <stop stop-opacity=".9"></stop>
      <stop offset="1" stop-color="#1a1a1a" stop-opacity="0"></stop>
    </linearGradient>
  </defs>
</svg>